<svg width="118" height="128" viewBox="0 0 118 128" fill="none" xmlns="http://www.w3.org/2000/svg">
<rect width="118" height="127.077" rx="59" fill="#B2B2B2"/>
<path fill-rule="evenodd" clip-rule="evenodd" d="M81.6922 39.3332H33.2819C29.9235 39.3332 27.2609 42.026 27.2609 45.3845L27.2307 81.6922C27.2307 85.0506 29.9235 87.7435 33.2819 87.7435H81.6922C85.0507 87.7435 87.7435 85.0506 87.7435 81.6922V45.3845C87.7435 42.026 85.0507 39.3332 81.6922 39.3332ZM78.6667 81.6922H36.3077C34.6436 81.6922 33.2821 80.3307 33.2821 78.6665V63.5383H81.6924V78.6665C81.6924 80.3307 80.3308 81.6922 78.6667 81.6922ZM33.2821 51.4354H81.6924V48.4098C81.6924 46.7457 80.3308 45.3841 78.6667 45.3841H36.3077C34.6436 45.3841 33.2821 46.7457 33.2821 48.4098V51.4354Z" fill="white"/>
</svg>
